<svg width="114" height="114" viewBox="0 0 114 114" fill="none" xmlns="http://www.w3.org/2000/svg">
<g filter="url(#filter0_d)">
<circle cx="57" cy="53" r="53" fill="black" fill-opacity="0.5"/>
<path d="M100.379 52.5C102.931 52.5 105.023 50.4264 104.775 47.8865C103.975 39.6885 101.054 31.8106 96.2623 25.0458C90.5777 17.0197 82.5418 10.9561 73.2639 7.69207C63.986 4.42802 53.9236 4.12446 44.4659 6.8233C35.0081 9.52213 26.6213 15.0903 20.4631 22.7591C14.305 30.4279 10.6793 39.8192 10.0864 49.6366C9.4935 59.4541 11.9627 69.2135 17.1532 77.5676C22.3437 85.9218 29.9995 92.4588 39.0637 96.2762C46.7036 99.4937 55.0265 100.645 63.2038 99.6563C65.7373 99.3499 67.3103 96.8594 66.7592 94.3676C66.2081 91.8759 63.7403 90.3324 61.2003 90.5792C54.9029 91.1911 48.526 90.2336 42.6506 87.7592C35.3499 84.6845 29.1836 79.4193 25.003 72.6905C20.8224 65.9617 18.8335 58.1011 19.3111 50.1937C19.7886 42.2864 22.7089 34.7222 27.669 28.5454C32.629 22.3686 39.3841 17.8838 47.0018 15.7101C54.6195 13.5363 62.7241 13.7808 70.1969 16.4098C77.6697 19.0388 84.1422 23.9227 88.7208 30.3872C92.4055 35.5896 94.7175 41.6093 95.4798 47.8903C95.7873 50.4237 97.8273 52.5 100.379 52.5Z" fill="#C4C4C4"/>
<path d="M66.7607 94.3673C67.3119 96.859 65.739 99.3496 63.2055 99.6561C55.0861 100.639 46.8221 99.5104 39.225 96.3437C30.2013 92.5825 22.5579 86.1285 17.3379 77.8625C12.1179 69.5965 9.57558 59.9212 10.0578 50.1569C10.5401 40.3926 14.0234 31.0149 20.0325 23.3035C26.0416 15.5921 34.2837 9.92269 43.6341 7.06887C52.9845 4.21506 62.9878 4.31588 72.2788 7.35758C81.5698 10.3993 89.6959 16.2337 95.5484 24.0646C100.476 30.6576 103.589 38.3953 104.621 46.5086C104.943 49.0402 102.912 51.174 100.361 51.2485C97.8101 51.323 95.7104 49.3071 95.3291 46.7838C94.3908 40.574 91.9337 34.6654 88.1458 29.5969C83.432 23.2896 76.8868 18.5903 69.4034 16.1404C61.9201 13.6905 53.863 13.6093 46.3318 15.9079C38.8006 18.2064 32.1621 22.7728 27.3221 28.9839C22.4821 35.195 19.6765 42.7482 19.2881 50.6128C18.8996 58.4774 20.9474 66.2703 25.1518 72.928C29.3562 79.5858 35.5124 84.7841 42.7805 87.8136C48.621 90.2481 54.9509 91.1867 61.2017 90.579C63.7417 90.3321 66.2096 91.8755 66.7607 94.3673Z" fill="url(#paint0_linear)"/>
<path d="M38.8888 33.9C38.8488 33.96 38.2388 34.1 37.0588 34.32C35.8988 34.54 35.0988 34.69 34.6588 34.77V32.34C37.0988 31.76 38.7688 30.88 39.6688 29.7H42.0988V54H38.8888V33.9ZM52.3433 54.24C50.2433 54.24 48.7333 53.65 47.8133 52.47C46.9133 51.27 46.4633 49.51 46.4633 47.19H49.6733C49.6733 48.55 49.8533 49.64 50.2133 50.46C50.5933 51.28 51.3233 51.69 52.4033 51.69C53.2233 51.69 53.8333 51.45 54.2333 50.97C54.6333 50.49 54.8833 49.86 54.9833 49.08C55.1033 48.28 55.1633 47.22 55.1633 45.9C55.1633 44.68 55.0933 43.71 54.9533 42.99C54.8333 42.25 54.5733 41.69 54.1733 41.31C53.7933 40.91 53.2133 40.71 52.4333 40.71C51.8133 40.71 51.2633 40.9 50.7833 41.28C50.3233 41.66 49.9733 42.14 49.7333 42.72H47.0033V29.7H57.4733V32.91H49.9133L49.7033 39.63C50.5633 38.73 51.7333 38.28 53.2133 38.28C55.0733 38.28 56.3933 38.92 57.1733 40.2C57.9733 41.46 58.3733 43.22 58.3733 45.48C58.3733 48.24 57.9233 50.39 57.0233 51.93C56.1233 53.47 54.5633 54.24 52.3433 54.24ZM59.7009 51.62H61.8409V54H59.7009V51.62ZM66.9904 54.18C65.7238 54.18 64.7504 53.8333 64.0704 53.14C63.3904 52.4467 63.0371 51.4533 63.0104 50.16V49.98H65.1504C65.1504 50.8067 65.2838 51.42 65.5504 51.82C65.8304 52.2067 66.3171 52.4 67.0104 52.4C68.2104 52.4 68.8104 51.2467 68.8104 48.94V46.48C68.5971 46.8267 68.2904 47.1 67.8904 47.3C67.5038 47.5 67.0238 47.6 66.4504 47.6C65.1838 47.6 64.2838 47.2 63.7504 46.4C63.2304 45.5867 62.9704 44.4267 62.9704 42.92C62.9704 41.3333 63.2971 40.06 63.9504 39.1C64.6038 38.14 65.6171 37.66 66.9904 37.66C68.3238 37.66 69.3171 38.1533 69.9704 39.14C70.6371 40.1133 70.9704 41.3867 70.9704 42.96V48.4C70.9704 50.1467 70.6638 51.5467 70.0504 52.6C69.4371 53.6533 68.4171 54.18 66.9904 54.18ZM66.9904 45.98C67.7771 45.98 68.3838 45.6067 68.8104 44.86V42.46C68.8104 40.4333 68.2038 39.42 66.9904 39.42C66.3238 39.42 65.8438 39.7 65.5504 40.26C65.2704 40.8067 65.1304 41.52 65.1304 42.4C65.1304 43.2133 65.1638 43.86 65.2304 44.34C65.2971 44.82 65.4638 45.2133 65.7304 45.52C65.9971 45.8267 66.4171 45.98 66.9904 45.98ZM76.5895 54.16C75.1895 54.16 74.1828 53.7667 73.5695 52.98C72.9695 52.18 72.6695 51.0067 72.6695 49.46H74.8095C74.8095 50.3667 74.9295 51.0933 75.1695 51.64C75.4228 52.1867 75.9095 52.46 76.6295 52.46C77.1762 52.46 77.5828 52.3 77.8495 51.98C78.1162 51.66 78.2828 51.24 78.3495 50.72C78.4295 50.1867 78.4695 49.48 78.4695 48.6C78.4695 47.7867 78.4228 47.14 78.3295 46.66C78.2495 46.1667 78.0762 45.7933 77.8095 45.54C77.5562 45.2733 77.1695 45.14 76.6495 45.14C76.2362 45.14 75.8695 45.2667 75.5495 45.52C75.2428 45.7733 75.0095 46.0933 74.8495 46.48H73.0295V37.8H80.0095V39.94H74.9695L74.8295 44.42C75.4028 43.82 76.1828 43.52 77.1695 43.52C78.4095 43.52 79.2895 43.9467 79.8095 44.8C80.3428 45.64 80.6095 46.8133 80.6095 48.32C80.6095 50.16 80.3095 51.5933 79.7095 52.62C79.1095 53.6467 78.0695 54.16 76.5895 54.16Z" fill="#FFF6F4"/>
<path d="M48.7914 67.144C47.5914 67.144 46.6554 66.812 45.9834 66.148C45.3194 65.484 44.9874 64.536 44.9874 63.304V58.6H46.9314V63.232C46.9314 64.736 47.5554 65.488 48.8034 65.488C49.4114 65.488 49.8754 65.308 50.1954 64.948C50.5154 64.58 50.6754 64.008 50.6754 63.232V58.6H52.5954V63.304C52.5954 64.536 52.2594 65.484 51.5874 66.148C50.9234 66.812 49.9914 67.144 48.7914 67.144ZM55.8758 60.184H53.1878V58.6H60.5078V60.184H57.8198V67H55.8758V60.184ZM66.6658 67L65.0458 64.66H64.9498H63.2578V67H61.3138V58.6H64.9498C65.6938 58.6 66.3378 58.724 66.8818 58.972C67.4338 59.22 67.8578 59.572 68.1538 60.028C68.4498 60.484 68.5978 61.024 68.5978 61.648C68.5978 62.272 68.4458 62.812 68.1418 63.268C67.8458 63.716 67.4218 64.06 66.8698 64.3L68.7538 67H66.6658ZM66.6298 61.648C66.6298 61.176 66.4778 60.816 66.1738 60.568C65.8698 60.312 65.4258 60.184 64.8418 60.184H63.2578V63.112H64.8418C65.4258 63.112 65.8698 62.984 66.1738 62.728C66.4778 62.472 66.6298 62.112 66.6298 61.648Z" fill="#FFF6F4"/>
<path d="M56.6301 74.9273C56.4114 74.9273 56.2274 74.8526 56.0781 74.7033C55.9287 74.5539 55.8541 74.3673 55.8541 74.1433C55.8541 73.9139 55.9287 73.7299 56.0781 73.5913C56.2274 73.4473 56.4114 73.3753 56.6301 73.3753C56.8487 73.3753 57.0327 73.4473 57.1821 73.5913C57.3314 73.7299 57.4061 73.9139 57.4061 74.1433C57.4061 74.3673 57.3314 74.5539 57.1821 74.7033C57.0327 74.8526 56.8487 74.9273 56.6301 74.9273Z" fill="#FFF6F4"/>
</g>
<defs>
<filter id="filter0_d" x="0" y="0" width="114" height="114" filterUnits="userSpaceOnUse" color-interpolation-filters="sRGB">
<feFlood flood-opacity="0" result="BackgroundImageFix"/>
<feColorMatrix in="SourceAlpha" type="matrix" values="0 0 0 0 0 0 0 0 0 0 0 0 0 0 0 0 0 0 127 0"/>
<feOffset dy="4"/>
<feGaussianBlur stdDeviation="2"/>
<feColorMatrix type="matrix" values="0 0 0 0 0 0 0 0 0 0 0 0 0 0 0 0 0 0 0.25 0"/>
<feBlend mode="normal" in2="BackgroundImageFix" result="effect1_dropShadow"/>
<feBlend mode="normal" in="SourceGraphic" in2="effect1_dropShadow" result="shape"/>
</filter>
<linearGradient id="paint0_linear" x1="77.925" y1="78.15" x2="67.475" y2="34.45" gradientUnits="userSpaceOnUse">
<stop stop-color="#D2DB00"/>
<stop offset="0.541667" stop-color="#00BAB6"/>
<stop offset="1" stop-color="#E0007F"/>
</linearGradient>
</defs>
</svg>
